# xmcd CD database file
#
# Track frame offsets:
# 150
# 18342
# 34990
# 51007
# 66562
# 78909
# 94663
# 108286
# 125958
# 140833
# 158966
# 175845
# 191907
# 208281
# 231386
# 248200
# 264015
# 279170
# 295287
# 312391
# 329495
#
# Disc length: 4601  seconds
#
# Revision: 13
# Processed by: cddbd v1.5.1PL2 Copyright (c) Steve Scherf et al.
# Submitted via: Kronen-Design 1.33
#
DISCID=4411f715
DTITLE=Various Artist - Teardrops No. 22
DYEAR=2006
DGENRE=Country
TTITLE0=Billy Currington - Must Be Doin' Somethin' Right
TTITLE1=Reba Mcentire - He Gets That From Me
TTITLE2=Keith Urban - Youre Not Alone Tonight
TTITLE3=Blake Shelton - Goodbye Time
TTITLE4=Gary Allan - Her Man
TTITLE5=Blaine Larsen - The Best Man
TTITLE6=Trace Adkins - Every Light In The House Is On
TTITLE7=Rory Hoffman - I Am A Soldier  For Your Freedom
TTITLE8=Steve Holy - Go Home
TTITLE9=Mindy Mccready - Maybe He'll Notice Her Now (featuring Lones
TTITLE9=tar's Richie Mcdonald)
TTITLE10=Alabama - The Maker Said Take Her
TTITLE11=Joe Nichols - I'm Not That Kind Of Guy
TTITLE12=Lonestar - I Never Needed You
TTITLE13=Phil Vassar - I Miss The Innocense
TTITLE14=Tim Mcgraw - Something's Broken
TTITLE15=Craig Morgan - That's When I'll Believe You're Gone
TTITLE16=Travis Tritt - We've Had It All
TTITLE17=Andy Griggs - If Heaven
TTITLE18=Randy Travis - Angels
TTITLE19=Alan Jackson - You Dont Have To Paint Me A Picture
TTITLE20=David Kersh - Goodnight Sweetheart
EXTD=
EXTT0=
EXTT1=
EXTT2=
EXTT3=
EXTT4=
EXTT5=
EXTT6=
EXTT7=
EXTT8=
EXTT9=
EXTT10=
EXTT11=
EXTT12=
EXTT13=
EXTT14=
EXTT15=
EXTT16=
EXTT17=
EXTT18=
EXTT19=
EXTT20=
PLAYORDER=
